<?xml version="1.0" ?><!DOCTYPE svg  PUBLIC '-//W3C//DTD SVG 1.1//EN'  'http://www.w3.org/Graphics/SVG/1.1/DTD/svg11.dtd'><svg enable-background="new 0 0 512 512" height="512px" version="1.1" viewBox="0 0 512 512" width="512px" xml:space="preserve" xmlns="http://www.w3.org/2000/svg" xmlns:xlink="http://www.w3.org/1999/xlink"><g><g id="Guides"/><g id="Layer_2"><g><path d="M508,256.879c0,138.066-111.934,250-250,250c-138.067,0-250-111.934-250-250      c0-138.067,111.933-250,250-250C396.066,6.879,508,118.812,508,256.879L508,256.879z M508,256.879" fill="#F2923D"/><path d="M217.069,360.892c-8.53-19.453-13.273-40.343-13.752-61.232c-13.774,21.368-24.219,43.193-31.334,58.86      c-0.457,0.957-0.457,1.414-0.936,2.372c-2.372,6.18-4.766,10.923-6.18,15.193c-1.893,4.738,0.479,10.445,5.701,12.333      c3.787,1.436,9.009,3.329,15.188,5.701c0.936,0.479,1.415,0.479,2.372,0.936c16.625,5.701,39.385,11.881,64.083,16.146      C237.48,396.975,225.621,379.866,217.069,360.892" fill="#F2F2F2"/><path d="M250.297,204.745c-48.416-99.206-156.628-95.898-173.712-51.266      c-13.292,34.158,44.151,115.325,176.106,56.486C252.212,209.483,250.775,205.681,250.297,204.745" fill="#F2F2F2"/><path d="M273.08,198.081c-27.048-66.907,20.41-105.362,46.044-95.396c19.453,7.6,29.897,65.019-44.608,98.249      C274.516,200.456,273.559,198.56,273.08,198.081" fill="#F2F2F2"/><path d="M411.669,273.547c-11.381-25.152-31.792-43.653-55.988-52.202c-2.372-0.936-4.749-1.417-7.595-1.417      c-12.338,0-24.676,10.445-25.633,23.264c-1.894,21.826,2.372,43.651,11.859,65.019c9.487,20.89,22.782,38.449,39.407,51.723      c4.265,3.33,9.966,4.744,15.166,4.744c9.988,0,19.476-5.201,23.262-14.231C422.592,327.186,423.071,299.181,411.669,273.547" fill="#F2F2F2"/><path d="M355.201,385.089c-20.889-16.124-37.492-37.493-48.895-63.583      c-11.858-26.591-16.603-53.639-14.23-80.231c0.457-7.57,2.851-14.705,6.158-20.865c-0.457,0-1.415,0.457-1.894,0.457      c-0.957,0.479-2.372,0.479-3.329,0.958c-7.115,1.893-14.231,5.225-20.411,8.549c-3.308,1.896-6.158,3.789-9.487,5.682      c-16.124,10.923-29.419,29.898-31.313,49.852c-1.915,21.347,1.894,43.194,10.902,64.062      c9.03,20.411,22.304,37.035,38.449,49.853c9.966,8.072,27.526,12.816,42.258,12.816c16.124,0,33.206-6.18,46.979-14.727      c0,0,0.479,0,0.479-0.462c0.936-0.474,1.893-1.437,2.851-1.915c0.457-0.479,0.936-0.936,1.414-0.936      C367.539,392.683,360.902,389.375,355.201,385.089" fill="#F2F2F2"/></g></g></g></svg>